<svg version="1" xmlns="http://www.w3.org/2000/svg" width="233.333" height="233.333" viewBox="0 0 175.000000 175.000000"><path d="M1.5 1.2c-.3.7-.4 40-.3 87.3l.3 86 85.8.3 85.7.2-.2-87.2-.3-87.3L87.2.2C19.5 0 1.8.2 1.5 1.2zm166.3 86.1l-.3 82.2-80.7.3L6 170V88.2c0-45.1.3-82.2.7-82.5.3-.4 36.8-.7 81-.7H168l-.2 82.3z"/><path d="M47.2 85.7l.3 49.8 25.5.3c29.5.3 37-.5 45.9-5.1 9-4.5 12.4-9.5 12.9-18.8.6-10-1.2-15.4-6.9-21.1-2.6-2.6-5.9-5-7.4-5.4l-2.6-.6 4.2-3.6c11.3-9.7 11.9-28.1 1.1-38.8-6.3-6.3-6.8-6.4-41.6-6.4H47l.2 49.7zm51.2-24.1c.9.9 1.6 3.2 1.6 5.4 0 6.2-1.5 7-14.1 7H75V60h10.9c8.6 0 11.3.3 12.5 1.6zm3.1 36.9c3.3 3.2 3.3 7.8 0 11-2.3 2.4-3 2.5-14.5 2.5H75V96h12c11.5 0 12.2.1 14.5 2.5z"/></svg>